<?xml version="1.0" standalone="no"?>
<!DOCTYPE svg PUBLIC "-//W3C//DTD SVG 20010904//EN"
 "http://www.w3.org/TR/2001/REC-SVG-20010904/DTD/svg10.dtd">
<svg version="1.0" xmlns="http://www.w3.org/2000/svg"
 width="826.000000pt" height="826.000000pt" viewBox="0 0 826.000000 826.000000"
 preserveAspectRatio="xMidYMid meet">

<g transform="translate(0.000000,826.000000) scale(0.100000,-0.100000)"
fill="#000000" stroke="none">
<path d="M4107 7314 c-4 -4 -7 -23 -8 -43 0 -32 -8 -42 -66 -90 -64 -53 -67
-54 -97 -41 -17 7 -42 13 -56 14 l-25 1 -3 -181 c-2 -170 -1 -182 18 -199 31
-28 26 -134 -18 -385 l-38 -215 -65 -5 -64 -5 -3 -99 -3 -98 43 -56 42 -56
-49 -243 -50 -243 -31 0 c-62 0 -64 -4 -64 -100 0 -61 6 -104 20 -145 l20 -59
-70 -408 c-38 -225 -70 -410 -70 -412 0 -1 -81 -38 -180 -82 -154 -67 -180
-82 -178 -99 2 -15 12 -21 36 -23 l32 -3 0 -88 0 -87 -152 -75 -153 -74 0 -50
0 -50 43 -3 42 -3 0 -53 c0 -45 -3 -54 -20 -59 -12 -3 -20 -14 -20 -26 0 -20
-5 -21 -138 -21 -94 0 -142 -4 -150 -12 -7 -7 -12 -29 -12 -50 l0 -37 -67 -3
-68 -3 -3 -442 -2 -443 -55 0 -54 0 -3 133 c-3 124 -4 132 -23 132 -19 0 -20
-8 -23 -132 l-3 -133 -24 0 c-23 0 -24 4 -27 62 -3 55 -5 63 -23 63 -18 0 -20
-8 -23 -63 -3 -61 -3 -62 -32 -62 -41 0 -60 -10 -60 -31 0 -19 44 -19 1990
-19 1816 0 1991 1 1997 16 8 20 -13 34 -54 34 l-32 0 -3 62 c-3 55 -5 63 -23
63 -18 0 -20 -8 -23 -61 -3 -57 -5 -62 -27 -67 l-25 -4 0 126 c0 130 -7 158
-34 148 -14 -5 -16 -26 -16 -137 l0 -130 -55 0 -55 0 -2 443 -3 442 -70 5 -70
5 -1 32 c-2 64 0 63 -154 63 -135 0 -140 1 -140 21 0 12 -8 23 -20 26 -17 5
-20 14 -20 59 l0 53 43 3 42 3 3 48 3 47 -155 77 -156 77 0 88 0 88 30 0 c35
0 51 25 29 44 -8 7 -89 45 -181 86 -100 43 -169 79 -172 89 -2 9 -35 196 -72
416 l-67 400 22 47 c16 37 21 66 21 135 0 101 -7 113 -62 113 -21 0 -38 3 -38
8 0 4 -20 105 -45 226 -25 120 -45 227 -45 238 0 11 18 45 40 75 39 55 40 58
40 142 0 47 -4 91 -8 98 -4 6 -34 13 -67 15 l-60 3 -37 205 c-44 244 -49 366
-18 393 19 16 20 29 20 186 0 93 -3 176 -6 185 -8 21 -31 20 -74 -3 l-34 -19
-66 56 c-57 48 -66 60 -70 96 -5 39 -25 58 -43 40z m53 -154 l35 -29 -69 -1
-70 0 29 30 c16 17 31 30 34 30 3 0 22 -14 41 -30z m-180 -105 c34 -19 68 -35
75 -35 22 0 28 33 9 47 -15 11 -7 13 54 13 69 0 72 -1 60 -20 -10 -15 -10 -22
0 -32 10 -10 28 -5 87 25 l75 37 0 -73 c0 -39 3 -101 6 -138 l7 -65 -96 -57
c-52 -31 -98 -57 -101 -57 -3 0 -6 13 -6 28 0 24 11 35 90 82 72 43 90 59 88
75 -2 14 -10 19 -26 18 -20 -3 -22 2 -22 42 0 33 -5 47 -18 54 -30 16 -42 -7
-42 -79 0 -66 0 -66 -35 -83 l-35 -17 0 105 c0 87 -3 107 -16 112 -29 11 -36
-13 -35 -117 1 -56 -2 -100 -6 -98 -66 31 -63 27 -63 98 0 49 -4 71 -15 80
-24 20 -38 -2 -39 -59 0 -50 0 -50 -29 -44 -25 5 -28 3 -25 -15 2 -15 31 -39
88 -75 69 -43 86 -58 88 -80 2 -15 1 -27 -1 -27 -2 0 -46 24 -98 54 l-94 54
-3 141 c-1 82 1 141 7 141 5 0 37 -16 71 -35z m119 -421 c2 -2 -32 -4 -77 -4
l-82 0 0 50 0 49 78 -46 c42 -25 79 -47 81 -49z m211 41 l0 -45 -82 0 -83 0
75 45 c41 25 78 45 83 45 4 0 7 -20 7 -45z m-310 -104 c0 -5 -5 -11 -11 -13
-6 -2 -24 -79 -39 -171 -15 -92 -30 -170 -33 -173 -3 -3 -14 -4 -24 -2 -18 3
-18 9 8 171 15 92 30 174 33 182 6 16 66 21 66 6z m341 -161 c35 -206 35 -200
4 -200 -19 0 -25 5 -25 23 0 48 -51 322 -60 325 -23 8 -7 23 22 20 l31 -3 28
-165z m-252 115 c-2 -25 -7 -45 -11 -45 -5 0 -7 12 -4 28 2 15 5 35 5 45 1 9
3 17 6 17 3 0 5 -20 4 -45z m133 0 c-2 -25 -7 -45 -11 -45 -4 0 -7 20 -7 45 0
25 5 45 11 45 6 0 9 -18 7 -45z m-135 -111 c-3 -3 -12 -4 -19 -1 -8 3 -5 6 6
6 11 1 17 -2 13 -5z m153 -24 c0 -10 -6 -21 -12 -24 -9 -3 -8 -8 5 -16 15 -10
17 -19 12 -47 -4 -24 -3 -33 4 -28 6 3 11 2 11 -3 0 -6 -11 -9 -25 -8 -20 1
-25 6 -25 29 0 17 5 27 15 27 8 0 15 4 15 9 0 5 -7 11 -15 15 -9 3 -15 18 -15
40 0 27 3 34 15 30 8 -4 15 -14 15 -24z m-153 4 c-3 -3 -12 -4 -19 -1 -8 3 -5
6 6 6 11 1 17 -2 13 -5z m3 -22 c0 -4 -9 -8 -20 -9 -11 -1 -20 2 -20 8 0 5 9
9 20 9 11 0 20 -4 20 -8z m-4 -99 c-11 -42 -17 -90 -10 -75 3 6 10 12 15 12 6
0 8 -4 5 -9 -3 -5 15 -3 42 5 61 18 74 25 40 20 -15 -1 -25 1 -22 5 9 15 -13
10 -26 -6 -7 -8 -17 -12 -22 -9 -5 4 3 15 18 25 20 13 33 15 46 8 12 -6 25 -6
37 1 26 13 48 4 55 -23 12 -47 12 -47 -115 -47 l-121 0 6 31 c3 17 6 44 6 60
0 25 4 29 26 29 24 0 26 -3 20 -27z m19 -23 c3 -5 1 -10 -4 -10 -6 0 -11 5
-11 10 0 6 2 10 4 10 3 0 8 -4 11 -10z m405 -190 c0 -53 -2 -60 -20 -60 -17 0
-20 7 -20 43 0 51 -11 70 -36 65 -15 -2 -20 -14 -22 -56 -3 -48 -5 -52 -28
-52 -22 0 -24 4 -24 50 0 37 -4 52 -16 57 -23 8 -32 -6 -36 -57 -3 -40 -6 -45
-30 -48 -26 -3 -27 -1 -30 50 -3 45 -6 53 -23 53 -17 0 -20 -8 -23 -52 l-3
-53 -75 0 -74 0 0 44 c0 44 -19 74 -40 61 -5 -3 -10 -28 -10 -56 0 -48 -1 -49
-29 -49 -29 0 -30 2 -33 53 -3 44 -6 52 -23 52 -17 0 -20 -8 -23 -52 -3 -51
-4 -53 -33 -53 -28 0 -29 1 -29 49 0 28 -5 53 -10 56 -21 13 -40 -17 -40 -61
0 -40 -2 -44 -25 -44 -24 0 -25 3 -25 60 l0 60 390 0 390 0 0 -60z m-30 -115
c0 -3 -7 -17 -16 -30 l-16 -25 -323 0 c-294 0 -323 2 -337 18 -38 43 -48 42
331 42 199 0 361 -2 361 -5z m-1 -327 c23 -117 44 -221 47 -230 4 -15 -1 -18
-29 -18 l-35 0 -37 158 c-20 86 -42 175 -48 197 l-12 40 -239 0 c-202 0 -240
-2 -247 -15 -4 -8 -27 -97 -51 -197 l-42 -183 -33 0 c-18 0 -33 2 -33 5 0 10
61 318 76 388 l16 67 312 0 313 0 42 -212z m-535 78 c-14 -11 -16 -25 -12 -85
5 -71 5 -72 -23 -87 -22 -11 -29 -12 -29 -2 0 32 42 183 52 189 20 12 30 -2
12 -15z m403 -67 c12 -46 23 -92 23 -102 0 -16 -2 -16 -30 -2 -30 15 -30 17
-30 95 0 50 -4 80 -11 80 -5 0 -7 5 -4 11 15 23 31 -2 52 -82z m-84 66 c-3 -9
-8 -14 -10 -11 -3 3 -2 9 2 15 9 16 15 13 8 -4z m-5 -80 c1 -14 -3 -25 -8 -25
-6 0 -10 8 -10 18 0 15 -2 15 -11 2 -8 -11 -12 -12 -16 -2 -2 6 -12 12 -21 12
-15 0 -15 -2 -2 -10 12 -8 11 -10 -7 -10 -41 0 -19 25 27 31 25 3 45 7 45 7 0
1 2 -9 3 -23z m-13 -35 l20 -9 -20 0 c-11 0 -27 4 -35 9 -13 9 -13 10 0 9 8 0
24 -4 35 -9z m-33 -81 c-2 -7 5 -10 18 -6 14 3 20 1 17 -6 -5 -13 -8 -13 -47
-3 -23 6 -23 6 -5 -5 11 -7 24 -19 28 -26 7 -12 11 -12 21 3 12 15 13 14 10
-7 -1 -13 -3 -32 -3 -41 -1 -11 -9 -18 -22 -18 -11 0 -17 -4 -14 -10 4 -6 -12
-10 -42 -9 -36 0 -43 3 -28 9 11 5 17 9 13 9 -15 2 -18 2 -48 11 -35 10 -42
-6 -7 -20 20 -8 20 -9 -8 -9 -30 -1 -30 0 -26 42 3 30 6 37 11 23 6 -19 7 -19
12 2 4 12 2 22 -2 22 -5 0 7 18 27 39 34 38 36 39 66 26 18 -8 31 -19 29 -26z
m-272 -79 l0 -50 -49 0 -49 0 10 40 c7 28 17 42 37 49 47 17 51 14 51 -39z
m417 39 c24 -8 33 -19 41 -50 l10 -39 -49 0 -49 0 0 50 c0 54 2 55 47 39z
m-100 -85 c-3 -3 -12 -4 -19 -1 -8 3 -5 6 6 6 11 1 17 -2 13 -5z m-617 -104
c0 -27 -4 -50 -10 -50 -5 0 -10 23 -10 50 0 28 5 50 10 50 6 0 10 -22 10 -50z
m100 -1 c0 -47 -2 -50 -22 -47 -18 2 -24 11 -26 36 -4 45 3 62 28 62 17 0 20
-6 20 -51z m98 4 c-3 -41 -6 -48 -25 -51 -21 -3 -23 1 -23 41 0 49 5 57 32 57
17 0 19 -7 16 -47z m100 0 c3 -40 1 -43 -22 -43 -24 0 -26 3 -26 46 0 41 2 45
23 42 18 -2 23 -10 25 -45z m97 36 c4 -6 4 -26 1 -45 -5 -25 -12 -34 -26 -34
-17 0 -20 7 -20 45 0 38 3 45 19 45 11 0 23 -5 26 -11z m125 -34 c0 -45 0 -45
-35 -45 -35 0 -35 0 -35 45 0 45 0 45 35 45 35 0 35 0 35 -45z m100 0 c0 -41
-2 -45 -23 -45 -21 0 -24 5 -25 45 -2 42 0 45 23 45 23 0 25 -4 25 -45z m98
-2 c3 -40 1 -43 -22 -43 -24 0 -26 3 -26 46 0 41 2 45 23 42 18 -2 23 -10 25
-45z m94 -3 c-3 -31 -8 -40 -23 -40 -15 0 -19 7 -19 40 0 35 3 40 23 40 20 0
22 -4 19 -40z m98 0 c0 -33 -3 -40 -20 -40 -17 0 -20 7 -20 40 0 33 3 40 20
40 17 0 20 -7 20 -40z m80 0 c0 -22 -4 -40 -10 -40 -5 0 -10 18 -10 40 0 22 5
40 10 40 6 0 10 -18 10 -40z m-24 -137 l-13 -38 -470 -2 -471 -3 -6 24 c-3 13
-9 31 -12 40 -6 15 40 16 489 16 l496 0 -13 -37z m-12 -120 c12 -59 146 -851
146 -862 0 -8 -16 -11 -52 -9 l-52 3 -22 135 c-54 341 -95 587 -100 613 l-6
27 -109 0 c-107 0 -109 0 -163 35 -77 49 -141 49 -223 0 -57 -34 -61 -35 -164
-35 -86 0 -108 -3 -113 -15 -6 -17 -28 -149 -81 -490 -19 -126 -38 -240 -40
-252 -5 -20 -12 -23 -55 -23 -43 0 -50 3 -50 19 0 26 138 845 146 865 6 14 54
16 469 16 l463 0 6 -27z m-694 -163 c0 -20 -1 -20 -25 -4 -14 9 -25 18 -25 20
0 2 11 4 25 4 18 0 25 -5 25 -20z m500 16 c0 -2 -11 -11 -25 -20 -24 -16 -25
-16 -25 4 0 15 7 20 25 20 14 0 25 -2 25 -4z m-310 -51 l0 -45 -38 0 c-33 0
-38 3 -40 25 -2 32 43 58 60 34 8 -12 9 -11 5 3 -5 14 0 28 10 28 2 0 3 -20 3
-45z m-192 -70 c-2 -6 -34 -38 -71 -70 -37 -31 -66 -62 -64 -69 2 -6 27 -24
55 -39 29 -16 50 -32 47 -37 -5 -8 -142 -90 -151 -90 -3 0 -3 3 -1 8 3 4 17
84 31 177 15 94 29 182 32 197 l6 28 59 -46 c33 -25 59 -52 57 -59z m611 -137
c15 -93 25 -168 23 -168 -3 0 -39 21 -80 46 l-74 47 51 29 c29 17 51 37 51 46
0 9 -29 42 -64 72 -36 30 -65 60 -65 67 -1 6 25 32 57 56 l57 45 8 -37 c5 -20
21 -111 36 -203z m-272 215 c8 -10 11 -12 7 -4 -4 9 -2 12 6 9 20 -6 24 -28 6
-28 -9 0 -16 -7 -16 -15 0 -8 -8 -15 -18 -15 -12 0 -18 8 -20 28 l-1 27 14
-25 c17 -29 19 -22 5 14 -11 30 -4 34 17 9z m50 -38 c-7 -17 -37 -21 -37 -4 0
5 5 7 10 4 6 -3 13 1 16 10 4 9 9 14 11 11 3 -3 3 -12 0 -21z m-197 -161 l0
-55 -37 3 c-38 4 -38 4 -38 48 0 39 3 45 25 51 48 13 50 12 50 -47z m-190 1
l0 -46 -31 17 -31 16 28 29 c15 16 29 29 31 29 2 0 3 -20 3 -45z m340 17 c20
13 43 2 24 -10 -18 -12 -26 -45 -12 -54 10 -6 8 -8 -4 -8 -12 0 -18 8 -19 23
-1 21 -1 21 -9 -3 -6 -20 -8 -14 -8 25 0 28 2 42 5 33 4 -14 8 -15 23 -6z m50
-27 c0 -25 -3 -45 -8 -45 -4 0 -6 20 -4 45 2 25 6 45 8 45 2 0 4 -20 4 -45z
m118 1 c-2 -1 -15 -10 -30 -19 l-28 -17 0 40 0 41 31 -21 c16 -12 29 -23 27
-24z m-357 -133 c1 -17 2 -17 6 0 5 20 33 23 33 3 0 -8 -18 -18 -40 -24 -32
-8 -40 -7 -40 4 0 8 6 11 15 8 11 -5 13 -2 9 10 -3 9 -1 16 5 16 6 0 12 -8 12
-17z m239 -14 c0 -24 -3 -30 -16 -25 -9 3 -22 6 -31 6 -13 0 -13 2 1 15 16 17
30 20 21 6 -3 -5 -1 -12 5 -16 5 -3 10 3 10 14 0 17 -6 21 -32 21 -22 0 -29
-3 -20 -9 11 -7 11 -9 -2 -14 -11 -5 -16 -1 -16 13 0 17 7 20 40 20 38 0 40
-1 40 -31z m-404 -61 c-9 -5 -16 -20 -16 -34 0 -14 -3 -24 -7 -22 -25 11 -82
54 -80 61 1 4 27 22 57 40 l55 33 3 -34 c2 -24 -2 -38 -12 -44z m532 38 c28
-16 52 -32 52 -35 0 -6 -75 -51 -84 -51 -4 0 -6 11 -6 24 0 13 -7 26 -15 30
-9 3 -15 18 -15 37 0 17 3 29 8 27 4 -1 31 -16 60 -32z m-581 -140 c10 -9 -5
-18 -68 -40 -44 -16 -81 -27 -83 -25 -4 4 12 113 20 137 2 9 21 2 61 -24 32
-20 64 -41 70 -48z m715 33 c4 -24 9 -56 12 -71 4 -18 1 -28 -7 -28 -18 0
-147 51 -147 58 1 11 114 91 125 88 5 -1 13 -22 17 -47z m-304 -106 c-49 -2
-88 -8 -88 -14 0 -6 38 -7 107 -3 79 5 104 4 99 -4 -4 -7 -1 -12 7 -12 8 0 17
7 21 15 3 8 11 15 17 15 8 0 8 -4 -1 -15 -14 -17 0 -21 16 -5 8 8 29 4 70 -11
69 -25 86 -37 82 -57 -2 -12 -25 -14 -128 -13 -69 1 -129 6 -134 12 -13 12
-146 12 -146 -1 0 -11 -326 -14 -379 -4 -31 7 -31 7 -9 18 13 7 32 15 43 19
20 7 20 7 1 -8 -26 -20 -21 -21 44 -14 45 5 48 6 17 7 -46 2 -45 20 2 39 26
11 31 11 25 1 -4 -7 1 -5 12 4 37 32 69 37 239 35 94 0 131 -3 83 -4z m135 0
c-7 -2 -21 -2 -30 0 -10 3 -4 5 12 5 17 0 24 -2 18 -5z m-988 -92 c-6 -5 -21
-12 -35 -15 l-25 -7 25 15 c28 17 50 21 35 7z m1536 -25 l34 -15 -42 1 c-31 0
-40 4 -36 14 6 17 4 17 44 0z m-1558 -8 c-2 -5 -21 -8 -41 -8 -20 0 -32 4 -25
8 15 9 72 9 66 0z m1160 2 c29 -4 -130 -8 -363 -8 -228 0 -406 3 -395 7 26 10
689 11 758 1z m-715 -145 l2 -75 -105 0 -105 0 0 50 c0 42 -3 50 -19 50 -22 0
-31 -19 -31 -66 l0 -34 -69 0 -70 0 -3 48 c-3 40 -6 47 -25 50 -21 3 -23 0
-23 -47 l0 -51 -70 0 -70 0 0 38 c0 20 3 54 6 75 l7 37 287 0 286 0 2 -75z
m562 39 c0 -31 -2 -35 -21 -29 -28 9 -464 9 -478 1 -7 -5 -11 5 -11 28 l0 36
255 0 255 0 0 -36z m634 -10 c3 -26 6 -60 6 -75 l0 -29 -69 0 -70 0 -3 48 c-3
39 -6 47 -23 47 -17 0 -20 -8 -23 -47 l-3 -48 -75 0 -74 0 0 50 c0 42 -3 50
-19 50 -22 0 -31 -19 -31 -66 l0 -34 -100 0 -100 0 0 75 0 75 289 0 288 0 7
-46z m-1034 -115 l0 -39 -55 0 -55 0 0 43 0 42 55 -3 55 -4 0 -39z m400 6 l0
-45 -55 0 -55 0 0 39 0 40 48 4 c26 2 50 4 55 5 4 1 7 -18 7 -43z m-160 -5 l0
-40 -95 0 -95 0 0 40 0 40 95 0 95 0 0 -40z m-377 -107 c20 -20 35 -39 32 -41
-3 -3 -12 3 -21 14 -13 16 -15 17 -10 2 5 -17 -17 -18 -359 -18 -237 0 -365 4
-365 10 0 6 5 10 10 10 6 0 10 7 10 15 0 8 12 21 28 29 22 13 81 15 333 16
l306 0 36 -37z m1329 -23 l42 -18 -305 -1 c-183 0 -296 4 -284 9 19 8 19 9 -2
11 -37 3 -41 4 -49 12 -4 4 119 7 274 7 253 -1 287 -3 324 -20z m-2062 -15 c0
-2 -17 -3 -37 -3 -28 0 -33 2 -18 8 17 6 55 3 55 -5z m1593 -72 c-326 -2 -860
-2 -1185 0 -326 1 -60 2 592 2 652 0 918 -1 593 -2z m537 -113 l0 -51 -257 1
c-198 1 -258 -2 -264 -12 -21 -34 7 -38 287 -38 l274 0 0 -24 0 -24 -273 -7
c-150 -4 -281 -6 -292 -4 -16 4 -19 11 -17 45 4 49 -20 83 -44 63 -8 -6 -14
-20 -14 -30 0 -16 -8 -19 -45 -19 l-45 0 0 40 0 39 133 3 c124 3 132 4 132 23
0 19 -8 20 -154 23 -117 2 -156 -1 -163 -10 -4 -7 -8 -37 -8 -65 l0 -53 -41 0
c-35 0 -40 2 -34 18 4 9 10 29 13 45 l4 27 -306 0 c-296 0 -306 -1 -306 -19 0
-11 4 -31 10 -45 9 -25 9 -26 -35 -26 l-44 0 -3 63 -3 62 -155 0 c-148 0 -155
-1 -155 -20 0 -19 8 -20 133 -23 l132 -3 0 -39 0 -40 -50 0 c-47 0 -50 2 -50
26 0 21 -4 25 -22 22 -20 -3 -23 -10 -26 -50 l-3 -48 -87 0 c-48 0 -178 -3
-289 -7 l-203 -6 0 31 0 32 273 0 c275 0 303 3 290 36 -4 11 -53 14 -264 14
l-259 0 0 50 0 50 1115 0 1115 0 0 -50z m-1061 -98 c12 -15 12 -15 6 6 -5 17
-2 22 12 21 10 0 13 -3 5 -6 -6 -2 -10 -9 -6 -14 3 -5 2 -18 -1 -29 -6 -18
-15 -20 -124 -20 -116 0 -118 0 -129 25 -12 26 -35 36 -26 10 4 -8 10 -15 15
-15 5 0 9 -4 9 -10 0 -19 -17 -10 -28 15 -7 14 -12 28 -12 30 0 7 65 10 165 7
80 -2 103 -6 114 -20z m-1259 -76 c0 -13 7 -27 16 -30 9 -3 160 -6 336 -6
l320 0 11 30 11 30 127 0 126 0 21 -50 c22 -53 18 -51 107 -52 17 0 101 0 188
1 l159 1 21 50 21 50 129 -3 c119 -2 130 -4 133 -21 1 -10 9 -23 16 -27 7 -4
159 -7 337 -6 l325 2 6 25 c6 25 6 25 125 25 116 0 120 -1 123 -22 3 -19 -2
-22 -40 -25 l-43 -3 -3 -442 -2 -443 -25 0 -25 0 0 415 c0 362 -2 416 -15 421
-14 6 -74 8 -152 5 l-33 -1 0 -420 0 -420 -39 0 -38 0 -6 73 c-16 186 -120
382 -267 505 -344 285 -1091 306 -1479 40 -102 -71 -186 -169 -245 -285 -31
-62 -76 -213 -76 -257 0 -61 -9 -76 -46 -76 l-34 0 -2 418 -3 417 -95 0 -95 0
-3 -417 -2 -418 -25 0 -25 0 -2 443 -3 442 -42 3 c-38 3 -43 6 -43 28 l0 24
125 0 125 0 0 -24z m-212 -499 l2 -417 -90 0 -90 0 0 421 0 421 88 -4 87 -4 3
-417z m3010 0 l2 -417 -90 0 -90 0 0 421 0 421 88 -4 87 -3 3 -418z m-2758
-22 l0 -395 -50 0 -50 0 0 395 0 395 50 0 49 0 1 -395z m2427 148 c-4 -137 -7
-314 -7 -395 l0 -148 -45 0 -45 0 0 395 0 395 52 0 51 0 -6 -247z m-985 187
c297 -51 499 -176 617 -383 40 -71 78 -189 89 -275 l8 -72 -993 0 -994 0 6 48
c21 149 63 260 141 368 111 157 324 275 564 314 41 6 82 13 90 15 8 1 92 3
187 4 129 1 199 -4 285 -19z"/>
<path d="M4057 6263 c-7 -12 -20 -79 -14 -73 6 6 27 80 22 80 -2 0 -6 -3 -8
-7z"/>
<path d="M4220 6230 c0 -5 7 -10 15 -10 8 0 15 5 15 10 0 6 -7 10 -15 10 -8 0
-15 -4 -15 -10z"/>
<path d="M4185 6200 c3 -5 13 -10 21 -10 8 0 14 5 14 10 0 6 -9 10 -21 10 -11
0 -17 -4 -14 -10z"/>
<path d="M4125 5490 c-16 -17 -23 -30 -15 -30 7 0 19 8 26 18 7 9 17 18 23 18
6 1 21 2 34 3 21 2 21 3 2 11 -32 14 -40 12 -70 -20z"/>
<path d="M4177 5456 c-3 -8 1 -20 9 -27 12 -10 14 -8 11 9 -4 28 -13 36 -20
18z"/>
<path d="M4020 4810 c0 -5 5 -10 10 -10 6 0 10 5 10 10 0 6 -4 10 -10 10 -5 0
-10 -4 -10 -10z"/>
<path d="M4070 4801 c0 -5 -10 -12 -22 -14 -20 -4 -19 -4 5 -6 18 -1 27 4 27
14 0 8 -2 15 -5 15 -3 0 -5 -4 -5 -9z"/>
<path d="M4073 4625 c0 -27 2 -38 4 -22 2 15 2 37 0 50 -2 12 -4 0 -4 -28z"/>
<path d="M4023 4620 c0 -25 2 -35 4 -22 2 12 2 32 0 45 -2 12 -4 2 -4 -23z"/>
<path d="M4041 4644 c0 -11 3 -14 6 -6 3 7 2 16 -1 19 -3 4 -6 -2 -5 -13z"/>
<path d="M3960 4210 c-18 -12 -2 -12 25 0 13 6 15 9 5 9 -8 0 -22 -4 -30 -9z"/>
<path d="M4448 4193 c6 -2 18 -2 25 0 6 3 1 5 -13 5 -14 0 -19 -2 -12 -5z"/>
<path d="M4098 4173 c12 -2 32 -2 45 0 12 2 2 4 -23 4 -25 0 -35 -2 -22 -4z"/>
<path d="M4500 4165 c-28 -16 -14 -25 37 -22 33 2 35 17 2 17 -11 0 -17 5 -14
10 7 12 7 12 -25 -5z"/>
<path d="M3185 3790 c-16 -7 -17 -9 -3 -9 9 -1 20 4 23 9 7 11 7 11 -20 0z"/>
<path d="M3716 3785 c4 -8 9 -15 13 -15 4 0 8 7 8 15 0 8 -6 15 -13 15 -8 0
-11 -6 -8 -15z"/>
<path d="M3767 3793 c-3 -5 6 -9 20 -10 19 -1 22 1 12 8 -17 11 -26 11 -32 2z"/>
<path d="M3410 3779 c-33 -3 12 -6 109 -7 90 -1 161 1 157 5 -9 9 -188 10
-266 2z"/>
<path d="M3175 3760 c-3 -5 1 -10 9 -10 9 0 16 5 16 10 0 6 -4 10 -9 10 -6 0
-13 -4 -16 -10z"/>
<path d="M3760 3749 c0 -5 5 -7 10 -4 6 3 10 8 10 11 0 2 -4 4 -10 4 -5 0 -10
-5 -10 -11z"/>
<path d="M5058 3743 c12 -2 32 -2 45 0 12 2 2 4 -23 4 -25 0 -35 -2 -22 -4z"/>
<path d="M3982 3444 c-7 -8 -8 -14 -3 -14 10 0 25 19 20 25 -2 1 -10 -3 -17
-11z"/>
<path d="M4161 3434 c0 -11 3 -14 6 -6 3 7 2 16 -1 19 -3 4 -6 -2 -5 -13z"/>
<path d="M3398 3256 c-94 -39 -180 -112 -285 -241 -55 -68 -65 -89 -51 -103
21 -21 34 -13 73 44 82 119 257 264 317 264 8 0 23 6 33 14 16 12 17 16 6 30
-17 21 -25 20 -93 -8z"/>
<path d="M4754 3265 c-8 -19 18 -45 43 -45 22 0 94 -40 143 -79 55 -43 135
-130 179 -195 33 -48 62 -58 69 -23 5 27 -79 137 -165 217 -110 101 -253 167
-269 125z"/>
<path d="M5918 6603 c6 -2 18 -2 25 0 6 3 1 5 -13 5 -14 0 -19 -2 -12 -5z"/>
<path d="M5968 6603 c7 -3 16 -2 19 1 4 3 -2 6 -13 5 -11 0 -14 -3 -6 -6z"/>
<path d="M5748 6553 c7 -3 16 -2 19 1 4 3 -2 6 -13 5 -11 0 -14 -3 -6 -6z"/>
<path d="M5800 6556 c0 -2 7 -6 15 -10 8 -3 15 -1 15 4 0 6 -7 10 -15 10 -8 0
-15 -2 -15 -4z"/>
<path d="M5859 6533 c-13 -16 -12 -17 4 -4 9 7 17 15 17 17 0 8 -8 3 -21 -13z"/>
<path d="M3161 6436 c-9 -11 -9 -16 0 -22 7 -4 9 -3 5 4 -3 6 2 15 11 21 10 6
13 11 7 11 -6 0 -17 -6 -23 -14z"/>
<path d="M3213 6443 c9 -2 23 -2 30 0 6 3 -1 5 -18 5 -16 0 -22 -2 -12 -5z"/>
<path d="M3013 6400 c-32 -13 -29 -20 5 -11 15 4 34 6 42 4 13 -4 13 -3 0 6
-18 12 -18 12 -47 1z"/>
<path d="M3100 6365 c-9 -10 -9 -15 -1 -15 6 0 11 5 11 11 0 5 5 7 12 3 7 -4
8 -3 4 4 -9 15 -11 15 -26 -3z"/>
<path d="M5360 6156 c0 -2 7 -7 16 -10 8 -3 12 -2 9 4 -6 10 -25 14 -25 6z"/>
<path d="M5413 6153 c9 -2 23 -2 30 0 6 3 -1 5 -18 5 -16 0 -22 -2 -12 -5z"/>
<path d="M5205 6111 c-14 -6 -8 -8 22 -7 23 0 36 4 30 8 -15 9 -26 9 -52 -1z"/>
<path d="M5750 6040 c0 -5 -6 -7 -14 -4 -8 3 -16 1 -20 -4 -5 -9 19 -9 44 1 8
3 26 8 40 10 17 3 14 5 -12 6 -21 0 -38 -3 -38 -9z"/>
<path d="M5591 6000 c-9 -5 -4 -7 13 -7 29 0 32 2 13 10 -8 3 -20 2 -26 -3z"/>
<path d="M2616 5992 c-2 -4 12 -6 32 -4 56 5 62 10 15 11 -23 1 -44 -3 -47 -7z"/>
<path d="M2596 5959 c2 -4 -2 -9 -8 -12 -7 -2 -10 -7 -7 -11 3 -3 13 2 22 12
14 15 15 19 2 19 -8 0 -12 -4 -9 -8z"/>
<path d="M2488 5943 c7 -3 16 -2 19 1 4 3 -2 6 -13 5 -11 0 -14 -3 -6 -6z"/>
<path d="M2548 5930 c42 -26 56 -26 17 0 -16 11 -34 20 -40 20 -5 0 5 -9 23
-20z"/>
<path d="M3017 5877 c4 -6 0 -8 -10 -4 -9 3 -19 2 -22 -3 -7 -11 36 -6 60 7
16 9 15 11 -8 11 -16 0 -24 -5 -20 -11z"/>
<path d="M2963 5835 c0 -8 4 -12 9 -9 5 3 6 10 3 15 -9 13 -12 11 -12 -6z"/>
<path d="M2968 5803 c7 -3 16 -2 19 1 4 3 -2 6 -13 5 -11 0 -14 -3 -6 -6z"/>
<path d="M6750 5656 c0 -2 7 -7 16 -10 8 -3 12 -2 9 4 -6 10 -25 14 -25 6z"/>
<path d="M6798 5653 c6 -2 18 -2 25 0 6 3 1 5 -13 5 -14 0 -19 -2 -12 -5z"/>
<path d="M6610 5616 c0 -2 9 -6 20 -9 11 -3 18 -1 14 4 -5 9 -34 13 -34 5z"/>
<path d="M6711 5604 c0 -11 3 -14 6 -6 3 7 2 16 -1 19 -3 4 -6 -2 -5 -13z"/>
<path d="M6666 5604 c7 -3 10 -15 8 -27 -4 -21 -4 -21 5 -2 10 23 5 35 -12 34
-9 0 -9 -2 -1 -5z"/>
<path d="M4733 5203 c9 -2 25 -2 35 0 9 3 1 5 -18 5 -19 0 -27 -2 -17 -5z"/>
<path d="M6203 5195 c0 -8 4 -12 9 -9 5 3 6 10 3 15 -9 13 -12 11 -12 -6z"/>
<path d="M6253 5203 c9 -2 23 -2 30 0 6 3 -1 5 -18 5 -16 0 -22 -2 -12 -5z"/>
<path d="M6165 5171 c-3 -5 -2 -12 3 -15 5 -3 9 1 9 9 0 17 -3 19 -12 6z"/>
<path d="M6034 5154 c-19 -15 -19 -15 1 -6 11 5 27 12 35 15 13 5 13 6 -1 6
-8 1 -24 -6 -35 -15z"/>
<path d="M6091 5166 c2 -2 15 -9 29 -15 24 -11 24 -11 6 3 -16 13 -49 24 -35
12z"/>
<path d="M6600 5092 c0 -5 14 -7 30 -4 17 2 30 6 30 8 0 2 -13 4 -30 4 -16 0
-30 -4 -30 -8z"/>
<path d="M6435 5050 c-16 -6 -14 -8 11 -7 17 0 36 -3 42 -7 6 -3 14 -1 18 6 4
7 4 10 0 6 -5 -4 -18 -3 -30 1 -11 5 -30 5 -41 1z"/>
<path d="M6385 5030 c-3 -6 1 -7 9 -4 18 7 21 14 7 14 -6 0 -13 -4 -16 -10z"/>
<path d="M1995 4460 c3 -5 8 -10 11 -10 2 0 4 5 4 10 0 6 -5 10 -11 10 -5 0
-7 -4 -4 -10z"/>
<path d="M1946 4429 c2 -4 -2 -10 -8 -12 -8 -4 -9 -6 -2 -6 6 -1 17 5 23 12 8
10 7 14 -4 14 -8 0 -12 -4 -9 -8z"/>
<path d="M1838 4413 c7 -3 16 -2 19 1 4 3 -2 6 -13 5 -11 0 -14 -3 -6 -6z"/>
<path d="M1916 4381 c-3 -4 6 -6 19 -3 14 2 25 6 25 8 0 8 -39 4 -44 -5z"/>
<path d="M1258 3964 c-38 -20 -36 -28 2 -9 17 9 42 13 57 10 23 -4 25 -4 8 4
-27 13 -36 12 -67 -5z"/>
<path d="M1775 3880 c-10 -11 -15 -20 -10 -20 4 0 1 -8 -6 -17 -7 -10 -2 -8
12 5 14 12 26 29 26 37 0 19 0 19 -22 -5z"/>
<path d="M1630 3850 c-11 -7 -6 -8 17 -4 41 8 86 -3 77 -18 -5 -7 -3 -8 6 -3
10 6 9 11 -5 22 -22 15 -73 17 -95 3z"/>
<path d="M1722 2008 c-32 -32 2 -79 43 -60 39 18 27 72 -15 72 -9 0 -21 -5
-28 -12z"/>
<path d="M2317 1993 c-4 -3 -7 -78 -7 -165 l0 -158 35 0 c19 0 35 5 35 10 0 7
6 7 19 0 11 -5 38 -10 61 -10 34 0 48 6 76 34 30 30 34 40 34 85 0 42 -5 56
-29 83 -25 29 -35 33 -78 33 -26 0 -56 -4 -65 -9 -16 -7 -18 -2 -18 48 0 55
-1 56 -28 56 -16 0 -32 -3 -35 -7z m171 -155 c21 -18 15 -85 -10 -102 -31 -22
-45 -20 -73 9 -32 31 -32 59 0 91 26 25 52 26 83 2z"/>
<path d="M5386 1979 c-16 -12 -26 -30 -26 -46 0 -16 -7 -27 -20 -30 -13 -3
-20 -14 -20 -29 0 -17 6 -24 20 -24 19 0 20 -7 20 -90 l0 -90 30 0 30 0 0 90
0 90 30 0 c25 0 30 4 30 25 0 21 -5 25 -30 25 -19 0 -30 5 -30 14 0 19 27 39
45 32 16 -6 40 28 30 44 -11 18 -81 11 -109 -11z"/>
<path d="M5990 1835 l0 -165 35 0 35 0 0 165 0 165 -35 0 -35 0 0 -165z"/>
<path d="M1450 1825 l0 -155 116 0 115 0 -3 28 c-3 27 -4 27 -80 30 l-78 3 0
124 0 125 -35 0 -35 0 0 -155z"/>
<path d="M3482 1953 c3 -26 7 -28 51 -31 l47 -3 0 -125 0 -124 35 0 35 0 0
125 0 125 50 0 c49 0 50 1 50 30 l0 30 -136 0 -135 0 3 -27z"/>
<path d="M5710 1962 c-41 -22 -80 -90 -80 -141 0 -47 42 -115 84 -135 43 -20
138 -21 176 -1 29 15 30 19 30 80 l0 65 -29 0 c-28 0 -30 -2 -33 -47 l-3 -48
-46 -3 c-38 -2 -52 2 -75 22 -24 20 -29 32 -29 71 0 39 5 51 28 71 33 28 100
33 133 9 19 -13 23 -12 43 9 l22 23 -28 19 c-41 27 -148 31 -193 6z"/>
<path d="M2920 1930 c0 -23 -4 -30 -20 -30 -15 0 -20 -7 -20 -25 0 -18 5 -25
20 -25 18 0 20 -7 20 -64 0 -85 23 -116 85 -116 24 0 46 4 49 9 12 18 -9 46
-34 46 -24 0 -25 3 -28 63 l-3 62 31 0 c25 0 30 4 30 25 0 21 -5 25 -30 25
-27 0 -30 3 -30 30 0 28 -3 30 -35 30 -32 0 -35 -2 -35 -30z"/>
<path d="M1719 1906 c-2 -2 -3 -56 -1 -120 l3 -116 30 0 29 0 0 120 0 120 -28
0 c-16 0 -31 -2 -33 -4z"/>
<path d="M1850 1790 l0 -120 35 0 35 0 0 78 c0 82 9 102 45 102 36 0 45 -20
45 -102 l0 -78 35 0 35 0 0 68 c0 76 17 112 54 112 37 0 46 -19 46 -102 l0
-78 35 0 35 0 0 91 c0 87 -1 92 -29 120 -34 34 -91 40 -129 13 -21 -14 -25
-14 -47 0 -28 19 -77 21 -108 5 -16 -9 -22 -9 -25 0 -2 6 -17 11 -33 11 l-29
0 0 -120z"/>
<path d="M2659 1887 c-68 -46 -71 -138 -6 -193 28 -23 37 -26 91 -22 51 4 63
9 87 36 23 26 29 42 29 80 0 27 -7 57 -16 70 -38 54 -127 68 -185 29z m112
-45 c15 -13 22 -30 22 -52 0 -34 -30 -70 -60 -70 -21 0 -63 46 -63 70 0 24 42
70 63 70 8 0 25 -8 38 -18z"/>
<path d="M3144 1894 c-82 -40 -85 -167 -4 -209 87 -45 199 10 200 98 1 97
-104 157 -196 111z m114 -62 c30 -39 -1 -112 -48 -112 -47 0 -78 73 -47 112
24 31 70 31 95 0z"/>
<path d="M3808 1895 c-35 -20 -58 -64 -58 -112 0 -69 52 -113 134 -113 83 0
142 77 116 153 -17 54 -52 80 -112 84 -35 2 -62 -2 -80 -12z m107 -60 c59 -58
-4 -144 -72 -100 -20 14 -24 23 -21 58 2 33 8 44 28 54 34 17 37 17 65 -12z"/>
<path d="M4024 1893 c4 -10 23 -64 43 -120 35 -103 36 -103 68 -103 32 0 34 3
61 70 15 39 29 68 32 66 2 -3 14 -33 27 -68 21 -59 25 -63 57 -66 l33 -3 39
108 c22 59 41 114 44 121 3 8 -6 12 -26 12 -28 0 -31 -4 -59 -82 l-30 -82 -29
82 c-28 80 -30 83 -58 80 -26 -3 -32 -10 -55 -75 -14 -40 -29 -73 -32 -73 -3
0 -17 33 -31 73 -23 68 -26 72 -58 75 -28 3 -32 1 -26 -15z"/>
<path d="M4515 1900 c-87 -35 -96 -165 -16 -213 41 -24 122 -23 152 2 22 18
23 21 8 36 -13 13 -21 15 -37 6 -29 -15 -64 -14 -90 5 -39 27 -24 34 68 34 89
0 90 0 90 24 0 85 -92 141 -175 106z m103 -67 l14 -23 -61 0 c-33 0 -61 3 -61
7 0 3 8 15 17 25 23 25 71 20 91 -9z"/>
<path d="M4740 1790 l0 -120 35 0 35 0 0 73 c0 80 15 107 58 107 18 0 22 6 22
30 0 33 -11 37 -57 19 -19 -7 -29 -7 -31 0 -2 6 -17 11 -33 11 l-29 0 0 -120z"/>
<path d="M5096 1891 c-55 -36 -71 -102 -41 -161 42 -81 186 -79 231 2 19 32
17 85 -3 119 -34 57 -130 77 -187 40z m122 -59 c30 -39 -1 -112 -48 -112 -47
0 -78 73 -47 112 24 31 70 31 95 0z"/>
<path d="M6159 1887 c-67 -45 -70 -139 -7 -192 29 -24 38 -27 92 -23 51 4 63
9 87 36 23 26 29 42 29 80 0 27 -7 57 -16 70 -38 54 -127 68 -185 29z m116
-52 c14 -13 25 -33 25 -45 0 -25 -42 -70 -65 -70 -23 0 -65 45 -65 70 0 25 42
70 65 70 9 0 27 -11 40 -25z"/>
<path d="M6417 1903 c-4 -3 -7 -57 -7 -120 l0 -113 35 0 35 0 0 70 c0 76 19
110 60 110 16 0 20 7 20 30 0 35 -21 40 -58 14 -20 -14 -22 -14 -22 0 0 16
-49 23 -63 9z"/>
<path d="M6580 1906 c0 -2 22 -56 50 -120 27 -64 47 -123 43 -132 -4 -11 -15
-15 -40 -12 -27 3 -37 0 -45 -16 -8 -15 -7 -22 8 -33 44 -32 112 -4 142 59 37
81 102 237 102 247 0 6 -13 11 -29 11 -27 0 -31 -6 -61 -80 -18 -44 -33 -80
-35 -80 -1 0 -17 36 -36 80 -32 77 -34 80 -66 80 -18 0 -33 -2 -33 -4z"/>
<path d="M3130 1421 c0 -54 4 -91 10 -91 6 0 10 35 10 84 0 47 -4 88 -10 91
-6 4 -10 -27 -10 -84z"/>
<path d="M3810 1477 l0 -35 -43 5 c-51 6 -70 -11 -69 -59 1 -39 22 -60 56 -59
84 3 76 -6 76 86 0 46 -4 87 -10 90 -6 4 -10 -8 -10 -28z m-20 -57 c25 -25 25
-32 1 -61 -16 -21 -22 -22 -45 -11 -43 19 -30 90 17 92 4 0 16 -9 27 -20z"/>
<path d="M4467 1503 c-12 -11 -8 -23 8 -23 8 0 15 7 15 15 0 16 -12 20 -23 8z"/>
<path d="M5470 1477 c0 -35 0 -35 -40 -30 -51 7 -70 -8 -70 -57 0 -42 15 -60
51 -60 13 1 36 1 52 1 l27 1 0 83 c0 46 -4 87 -10 90 -6 4 -10 -8 -10 -28z
m-31 -47 c36 -19 36 -61 0 -81 -46 -24 -86 54 -41 80 21 13 20 13 41 1z"/>
<path d="M6037 1503 c-4 -3 -7 -44 -7 -90 0 -68 3 -83 16 -83 8 0 13 4 10 9
-3 4 1 17 9 27 14 18 16 18 40 -9 36 -40 53 -29 19 12 l-28 34 28 23 c36 32
12 31 -30 -1 -18 -14 -35 -25 -38 -25 -3 0 -4 22 -3 50 1 49 -4 66 -16 53z"/>
<path d="M2173 1493 c-13 -3 -32 -16 -43 -30 -45 -58 -7 -136 67 -136 22 0 46
3 52 7 14 9 15 76 1 76 -5 0 -10 -13 -10 -29 0 -21 -6 -30 -21 -34 -53 -14
-102 41 -80 90 14 31 53 45 87 32 28 -10 44 -5 28 10 -12 12 -54 19 -81 14z"/>
<path d="M3470 1410 c0 -47 4 -80 10 -80 6 0 10 33 10 80 0 47 -4 80 -10 80
-6 0 -10 -33 -10 -80z"/>
<path d="M4910 1410 l0 -80 60 0 c33 0 60 4 60 10 0 6 -20 10 -45 10 l-45 0 0
70 c0 56 -3 70 -15 70 -12 0 -15 -16 -15 -80z"/>
<path d="M2880 1466 c0 -8 -6 -17 -12 -19 -10 -4 -10 -6 0 -6 7 -1 12 -17 12
-45 0 -51 19 -77 50 -69 21 6 21 6 -2 17 -18 9 -23 20 -23 51 0 32 4 40 18 39
9 -1 17 2 17 7 0 5 -7 9 -15 9 -9 0 -18 7 -21 15 -8 19 -24 20 -24 1z"/>
<path d="M2310 1434 c-18 -21 -17 -72 2 -90 24 -24 78 -21 100 6 22 27 23 49
2 78 -18 27 -84 31 -104 6z m69 -4 c36 -19 36 -61 0 -81 -46 -24 -86 54 -41
80 21 13 20 13 41 1z"/>
<path d="M2460 1388 c0 -32 4 -58 10 -58 6 0 10 14 10 31 0 38 16 69 35 69 8
0 15 4 15 9 0 5 -16 9 -35 8 l-35 -1 0 -58z"/>
<path d="M2566 1434 c-9 -8 -16 -28 -16 -44 0 -38 24 -60 64 -60 58 0 89 66
48 103 -23 21 -76 22 -96 1z m72 -10 c27 -19 28 -45 2 -69 -17 -15 -24 -16
-45 -7 -29 14 -33 47 -8 74 20 22 23 22 51 2z"/>
<path d="M2710 1388 c0 -40 4 -58 13 -58 7 0 13 16 14 42 3 84 73 87 73 3 0
-25 5 -45 10 -45 12 0 13 89 2 108 -5 8 -27 11 -60 10 l-52 -2 0 -58z"/>
<path d="M2974 1439 c-5 -8 2 -10 22 -6 30 5 64 -7 64 -23 0 -6 -15 -10 -34
-10 -37 0 -60 -19 -54 -47 3 -14 14 -18 56 -19 l52 -2 0 47 c0 26 -5 52 -12
59 -15 15 -85 16 -94 1z m86 -67 c0 -14 -23 -32 -41 -32 -21 0 -33 16 -24 30
7 12 65 14 65 2z"/>
<path d="M3196 1428 c-21 -29 -20 -51 2 -78 21 -25 73 -30 98 -9 16 13 19 62
4 90 -16 28 -84 27 -104 -3z m75 2 c26 -15 26 -66 -1 -80 -23 -12 -54 0 -64
25 -9 25 12 57 42 64 2 1 12 -4 23 -9z"/>
<path d="M3540 1388 c0 -32 4 -58 10 -58 6 0 10 18 10 39 0 29 6 44 22 55 35
24 58 5 58 -49 0 -25 5 -45 10 -45 15 0 12 96 -3 109 -8 6 -35 10 -60 9 l-47
-2 0 -58z"/>
<path d="M3876 1428 c-34 -47 -6 -98 53 -98 46 0 61 14 61 60 0 46 -15 60 -61
60 -28 0 -42 -6 -53 -22z m75 2 c26 -15 26 -66 -1 -80 -23 -12 -54 0 -64 25
-9 25 12 57 42 64 2 1 12 -4 23 -9z"/>
<path d="M4030 1388 c0 -32 4 -58 10 -58 6 0 10 20 10 45 0 34 5 47 19 55 25
13 27 13 45 -6 9 -9 16 -32 16 -55 0 -21 5 -39 10 -39 13 0 13 76 0 101 -9 16
-20 19 -60 18 l-50 -2 0 -59z"/>
<path d="M4196 1428 c-9 -12 -16 -29 -16 -38 0 -25 28 -57 53 -62 30 -6 70 9
62 22 -4 7 -13 6 -26 -1 -16 -8 -26 -6 -47 8 l-27 18 58 3 c61 3 68 12 41 50
-10 15 -25 22 -49 22 -24 0 -39 -7 -49 -22z m78 -4 c23 -22 21 -24 -31 -24
-45 0 -46 0 -28 20 22 24 38 25 59 4z"/>
<path d="M4340 1435 c-18 -22 -5 -43 32 -53 47 -12 44 -38 -4 -35 -44 3 -51
-12 -11 -20 38 -7 73 8 73 33 0 19 -13 28 -64 44 -32 10 1 38 36 31 17 -4 28
-2 28 4 0 17 -76 13 -90 -4z"/>
<path d="M4465 1390 c0 -41 4 -60 13 -60 8 0 12 19 12 60 0 41 -4 60 -12 60
-9 0 -13 -19 -13 -60z"/>
<path d="M4534 1439 c-5 -9 0 -10 19 -5 31 7 57 -1 57 -20 0 -9 -11 -14 -29
-14 -28 0 -61 -22 -61 -39 0 -15 28 -32 49 -32 67 2 62 -2 59 59 l-3 57 -42 3
c-24 2 -44 -2 -49 -9z m76 -73 c0 -20 -38 -30 -55 -16 -21 17 -9 30 26 30 18
0 29 -5 29 -14z"/>
<path d="M4680 1388 c0 -32 4 -58 10 -58 6 0 10 18 10 39 0 23 7 46 16 55 18
19 20 19 45 6 14 -8 19 -21 19 -55 0 -25 5 -45 10 -45 15 0 12 96 -4 109 -7 6
-34 10 -60 10 l-46 -2 0 -59z"/>
<path d="M5054 1439 c-5 -8 2 -10 21 -6 35 6 55 -1 55 -19 0 -9 -11 -14 -27
-14 -39 0 -55 -13 -51 -41 3 -21 9 -24 56 -27 l52 -3 0 41 c0 62 -14 80 -60
80 -21 0 -42 -5 -46 -11z m80 -74 c-12 -30 -64 -30 -64 1 0 9 11 14 35 14 26
0 33 -4 29 -15z"/>
<path d="M5200 1388 c0 -32 4 -58 10 -58 6 0 10 18 10 39 0 29 6 44 22 55 35
24 58 5 58 -49 0 -25 5 -45 10 -45 15 0 12 96 -3 109 -8 6 -35 10 -60 9 l-47
-2 0 -58z"/>
<path d="M5530 1389 c0 -46 3 -59 15 -59 11 0 15 12 15 45 0 49 21 71 52 54
13 -7 18 -22 18 -54 0 -25 5 -45 10 -45 6 0 10 18 10 39 0 36 19 71 38 71 21
-1 32 -21 34 -63 4 -60 28 -65 28 -6 0 59 -14 79 -55 79 -18 0 -37 -5 -40 -10
-5 -8 -11 -8 -19 -1 -7 6 -33 10 -59 9 l-47 -1 0 -58z"/>
<path d="M5790 1439 c0 -7 9 -9 22 -6 23 6 58 -8 58 -23 0 -6 -15 -10 -33 -10
-37 0 -57 -15 -57 -42 0 -22 37 -38 65 -28 11 4 26 5 33 3 16 -6 17 88 0 105
-15 15 -88 16 -88 1z m80 -67 c0 -14 -23 -32 -41 -32 -21 0 -33 16 -24 30 7
12 65 14 65 2z"/>
<path d="M5940 1388 c0 -32 4 -58 10 -58 6 0 10 21 10 46 0 37 4 47 20 51 30
8 24 22 -10 21 -30 -1 -30 -1 -30 -60z"/>
<path d="M3340 1323 c0 -23 4 -33 9 -27 17 17 17 64 1 64 -5 0 -10 -17 -10
-37z"/>
</g>
</svg>
