<svg xmlns="http://www.w3.org/2000/svg" xmlns:xlink="http://www.w3.org/1999/xlink" width="500" zoomAndPan="magnify" viewBox="0 0 375 374.999991" height="500" preserveAspectRatio="xMidYMid meet" version="1.0"><defs><g/><clipPath id="2d242575d0"><path d="M 239 228 L 359 228 L 359 338 L 239 338 Z M 239 228 " clip-rule="nonzero"/></clipPath><clipPath id="47095c3e59"><path d="M 271.269531 228.828125 L 358.59375 297.351562 L 327.109375 337.472656 L 239.785156 268.949219 Z M 271.269531 228.828125 " clip-rule="nonzero"/></clipPath><clipPath id="93e4d495d9"><path d="M 176.492188 160.289062 L 337.742188 160.289062 L 337.742188 179.789062 L 176.492188 179.789062 Z M 176.492188 160.289062 " clip-rule="nonzero"/></clipPath></defs><g fill="#381a2a" fill-opacity="1"><g transform="translate(42.205079, 336.45036)"><g><path d="M 156.734375 5.1875 C 134.273438 5.1875 114.335938 0.796875 96.921875 -7.984375 C 79.515625 -16.765625 65.554688 -28.640625 55.046875 -43.609375 C 44.546875 -58.578125 36.703125 -75.128906 31.515625 -93.265625 C 26.335938 -111.398438 23.75 -130.6875 23.75 -151.125 C 23.75 -170.113281 26.484375 -188.601562 31.953125 -206.59375 C 37.421875 -224.582031 45.40625 -241.207031 55.90625 -256.46875 C 66.414062 -271.726562 80.378906 -284.035156 97.796875 -293.390625 C 115.210938 -302.742188 134.859375 -307.421875 156.734375 -307.421875 C 183.503906 -307.421875 205.160156 -301.585938 221.703125 -289.921875 C 238.253906 -278.265625 252.722656 -262.507812 265.109375 -242.65625 L 213.71875 -213.296875 C 197.03125 -238.617188 178.035156 -251.28125 156.734375 -251.28125 C 143.492188 -251.28125 131.90625 -248.1875 121.96875 -242 C 112.039062 -235.8125 104.484375 -227.609375 99.296875 -217.390625 C 94.117188 -207.171875 90.304688 -196.519531 87.859375 -185.4375 C 85.410156 -174.363281 84.1875 -162.925781 84.1875 -151.125 C 84.1875 -122.914062 90.234375 -99.164062 102.328125 -79.875 C 114.421875 -60.59375 132.554688 -50.953125 156.734375 -50.953125 C 171.410156 -50.953125 183.859375 -55.695312 194.078125 -65.1875 C 204.296875 -74.6875 209.40625 -86.203125 209.40625 -99.734375 L 209.40625 -103.1875 L 158.03125 -103.1875 L 158.03125 -158.453125 L 268.984375 -158.453125 L 268.984375 -113.984375 C 268.984375 -76.566406 258.476562 -47.347656 237.46875 -26.328125 C 216.457031 -5.316406 189.546875 5.1875 156.734375 5.1875 Z M 156.734375 5.1875 "/></g></g></g><g fill="#381a2a" fill-opacity="1"><g transform="translate(37.500002, 332.921844)"><g><path d="M 208.4375 -3.875 C 193.03125 2.164062 175.96875 5.1875 157.25 5.1875 C 138.53125 5.1875 121.460938 2.164062 106.046875 -3.875 C 90.640625 -9.925781 77.96875 -18.0625 68.03125 -28.28125 C 58.101562 -38.507812 49.679688 -50.390625 42.765625 -63.921875 C 35.859375 -77.460938 30.960938 -91.503906 28.078125 -106.046875 C 25.203125 -120.597656 23.765625 -135.648438 23.765625 -151.203125 C 23.765625 -166.753906 25.203125 -181.800781 28.078125 -196.34375 C 30.960938 -210.882812 35.859375 -224.921875 42.765625 -238.453125 C 49.679688 -251.992188 58.101562 -263.875 68.03125 -274.09375 C 77.96875 -284.320312 90.640625 -292.457031 106.046875 -298.5 C 121.460938 -304.550781 138.53125 -307.578125 157.25 -307.578125 C 175.96875 -307.578125 193.03125 -304.550781 208.4375 -298.5 C 223.84375 -292.457031 236.515625 -284.320312 246.453125 -274.09375 C 256.390625 -263.875 264.738281 -251.992188 271.5 -238.453125 C 278.269531 -224.921875 283.09375 -210.882812 285.96875 -196.34375 C 288.851562 -181.800781 290.296875 -166.753906 290.296875 -151.203125 C 290.296875 -135.648438 288.851562 -120.597656 285.96875 -106.046875 C 283.09375 -91.503906 278.269531 -77.460938 271.5 -63.921875 C 264.738281 -50.390625 256.390625 -38.507812 246.453125 -28.28125 C 236.515625 -18.0625 223.84375 -9.925781 208.4375 -3.875 Z M 157.25 -50.96875 C 169.914062 -50.96875 181.144531 -54.0625 190.9375 -60.25 C 200.726562 -66.445312 208.359375 -74.65625 213.828125 -84.875 C 219.304688 -95.101562 223.34375 -105.832031 225.9375 -117.0625 C 228.53125 -128.300781 229.828125 -139.679688 229.828125 -151.203125 C 229.828125 -163.585938 228.53125 -175.394531 225.9375 -186.625 C 223.34375 -197.851562 219.378906 -208.4375 214.046875 -218.375 C 208.722656 -228.3125 201.164062 -236.300781 191.375 -242.34375 C 181.582031 -248.394531 170.207031 -251.421875 157.25 -251.421875 C 144.289062 -251.421875 132.84375 -248.320312 122.90625 -242.125 C 112.96875 -235.9375 105.332031 -227.726562 100 -217.5 C 94.675781 -207.28125 90.71875 -196.625 88.125 -185.53125 C 85.53125 -174.445312 84.234375 -163.003906 84.234375 -151.203125 C 84.234375 -134.492188 86.394531 -118.9375 90.71875 -104.53125 C 95.039062 -90.132812 102.960938 -77.609375 114.484375 -66.953125 C 126.003906 -56.296875 140.257812 -50.96875 157.25 -50.96875 Z M 157.25 -50.96875 "/></g></g></g><g clip-path="url(#2d242575d0)"><g clip-path="url(#47095c3e59)"><path fill="#381a2a" d="M 271.277344 228.832031 L 358.589844 297.347656 L 327.105469 337.46875 L 239.792969 268.953125 L 271.277344 228.832031 " fill-opacity="1" fill-rule="nonzero"/></g></g><g clip-path="url(#93e4d495d9)"><path fill="#ffffff" d="M 176.523438 179.789062 L 176.523438 160.289062 L 337.710938 160.289062 L 337.710938 179.789062 L 176.523438 179.789062 " fill-opacity="1" fill-rule="nonzero"/></g><g fill="#ffffff" fill-opacity="1"><g transform="translate(57.076172, 320.921845)"><g><path d="M 186.5625 -7.5 C 172.570312 0.582031 156.332031 4.625 137.84375 4.625 C 119.363281 4.625 103.128906 0.582031 89.140625 -7.5 C 75.148438 -15.59375 64.175781 -26.503906 56.21875 -40.234375 C 48.257812 -53.972656 42.351562 -68.800781 38.5 -84.71875 C 34.65625 -100.632812 32.734375 -117.320312 32.734375 -134.78125 C 32.734375 -152.238281 34.65625 -168.925781 38.5 -184.84375 C 42.351562 -200.757812 48.257812 -215.582031 56.21875 -229.3125 C 64.175781 -243.050781 75.148438 -253.960938 89.140625 -262.046875 C 103.128906 -270.128906 119.363281 -274.171875 137.84375 -274.171875 C 156.332031 -274.171875 172.570312 -270.128906 186.5625 -262.046875 C 200.5625 -253.960938 211.539062 -243.050781 219.5 -229.3125 C 227.457031 -215.582031 233.359375 -200.757812 237.203125 -184.84375 C 241.054688 -168.925781 242.984375 -152.238281 242.984375 -134.78125 C 242.984375 -117.320312 241.054688 -100.632812 237.203125 -84.71875 C 233.359375 -68.800781 227.457031 -53.972656 219.5 -40.234375 C 211.539062 -26.503906 200.5625 -15.59375 186.5625 -7.5 Z M 137.859375 -9.234375 C 153.773438 -9.234375 167.828125 -12.957031 180.015625 -20.40625 C 192.210938 -27.851562 201.648438 -37.800781 208.328125 -50.25 C 215.003906 -62.695312 219.945312 -76.046875 223.15625 -90.296875 C 226.363281 -104.546875 227.96875 -119.375 227.96875 -134.78125 C 227.96875 -151.46875 226.363281 -167.0625 223.15625 -181.5625 C 219.945312 -196.070312 214.941406 -209.359375 208.140625 -221.421875 C 201.335938 -233.484375 191.96875 -242.976562 180.03125 -249.90625 C 168.09375 -256.84375 154.035156 -260.3125 137.859375 -260.3125 C 121.941406 -260.3125 107.882812 -256.585938 95.6875 -249.140625 C 83.5 -241.703125 74.066406 -231.753906 67.390625 -219.296875 C 60.710938 -206.847656 55.769531 -193.5 52.5625 -179.25 C 49.351562 -165 47.75 -150.175781 47.75 -134.78125 C 47.75 -118.09375 49.351562 -102.492188 52.5625 -87.984375 C 55.769531 -73.484375 60.773438 -60.195312 67.578125 -48.125 C 74.378906 -36.0625 83.75 -26.5625 95.6875 -19.625 C 107.625 -12.695312 121.679688 -9.234375 137.859375 -9.234375 Z M 137.859375 -9.234375 "/></g></g></g></svg>