<?xml version="1.0" standalone="no"?>
<!DOCTYPE svg PUBLIC "-//W3C//DTD SVG 20010904//EN"
 "http://www.w3.org/TR/2001/REC-SVG-20010904/DTD/svg10.dtd">
<svg version="1.0" xmlns="http://www.w3.org/2000/svg"
 width="1272.000000pt" height="1473.000000pt" viewBox="0 0 1272.000000 1473.000000"
 preserveAspectRatio="xMidYMid meet">

<g transform="translate(0.000000,1473.000000) scale(0.100000,-0.100000)"
fill="#381a2a" stroke="none">
<path d="M5695 14719 c-1380 -91 -2685 -756 -3711 -1889 -1994 -2204 -2551
-5761 -1366 -8716 504 -1258 1302 -2320 2292 -3056 1800 -1337 4079 -1410
5935 -191 241 159 425 298 643 486 93 81 104 88 122 75 10 -7 357 -296 770
-643 413 -347 755 -630 759 -630 11 0 1571 1861 1571 1873 0 6 -1345 1141
-1604 1353 -20 17 -19 20 71 205 507 1044 780 2134 843 3374 11 215 13 640 4
687 l-6 30 -585 7 c-321 3 -1671 3 -2999 0 l-2414 -7 0 -1224 0 -1223 1365 0
c751 0 1365 -2 1365 -4 0 -13 -113 -274 -169 -391 -309 -640 -757 -1179 -1261
-1513 -721 -479 -1581 -537 -2334 -158 -288 145 -510 309 -761 560 -636 637
-1075 1567 -1249 2647 -87 536 -101 1136 -41 1694 158 1451 829 2715 1775
3343 307 204 688 349 1035 393 139 17 430 14 570 -6 563 -80 1089 -366 1536
-834 611 -639 1036 -1557 1203 -2602 14 -85 28 -179 31 -210 l7 -56 496 -6
c272 -4 927 -7 1454 -7 801 0 958 2 958 14 0 39 -34 345 -56 506 -172 1257
-613 2440 -1278 3434 -522 778 -1163 1412 -1905 1883 -925 588 -2012 872
-3066 802z"/>
</g>
</svg>
