<svg xmlns="http://www.w3.org/2000/svg" xmlns:xlink="http://www.w3.org/1999/xlink" width="2000" zoomAndPan="magnify" viewBox="0 0 1500 449.999984" height="600" preserveAspectRatio="xMidYMid meet" version="1.0"><defs><g/></defs><g fill="#381a2a" fill-opacity="1"><g transform="translate(-22.175979, 394.137605)"><g><path d="M 180.90625 5.984375 C 154.988281 5.984375 131.976562 0.914062 111.875 -9.21875 C 91.78125 -19.351562 75.664062 -33.054688 63.53125 -50.328125 C 51.40625 -67.609375 42.351562 -86.710938 36.375 -107.640625 C 30.394531 -128.566406 27.40625 -150.828125 27.40625 -174.421875 C 27.40625 -196.347656 30.5625 -217.691406 36.875 -238.453125 C 43.1875 -259.222656 52.40625 -278.410156 64.53125 -296.015625 C 76.65625 -313.617188 92.769531 -327.820312 112.875 -338.625 C 132.976562 -349.425781 155.65625 -354.828125 180.90625 -354.828125 C 211.800781 -354.828125 236.796875 -348.097656 255.890625 -334.640625 C 274.992188 -321.179688 291.691406 -302.988281 305.984375 -280.0625 L 246.6875 -246.1875 C 227.414062 -275.414062 205.488281 -290.03125 180.90625 -290.03125 C 165.613281 -290.03125 152.238281 -286.457031 140.78125 -279.3125 C 129.320312 -272.175781 120.601562 -262.707031 114.625 -250.90625 C 108.644531 -239.113281 104.238281 -226.820312 101.40625 -214.03125 C 98.582031 -201.25 97.171875 -188.046875 97.171875 -174.421875 C 97.171875 -141.859375 104.144531 -114.445312 118.09375 -92.1875 C 132.050781 -69.925781 152.988281 -58.796875 180.90625 -58.796875 C 197.84375 -58.796875 212.207031 -64.273438 224 -75.234375 C 235.800781 -86.203125 241.703125 -99.5 241.703125 -115.125 L 241.703125 -119.109375 L 182.390625 -119.109375 L 182.390625 -182.890625 L 310.46875 -182.890625 L 310.46875 -131.5625 C 310.46875 -88.375 298.335938 -54.648438 274.078125 -30.390625 C 249.828125 -6.140625 218.769531 5.984375 180.90625 5.984375 Z M 180.90625 5.984375 "/></g></g></g><g fill="#381a2a" fill-opacity="1"><g transform="translate(268.852982, 394.137605)"><g><path d="M 240.453125 -4.484375 C 222.679688 2.492188 202.992188 5.984375 181.390625 5.984375 C 159.796875 5.984375 140.113281 2.492188 122.34375 -4.484375 C 104.570312 -11.460938 89.953125 -20.847656 78.484375 -32.640625 C 67.023438 -44.429688 57.304688 -58.132812 49.328125 -73.75 C 41.359375 -89.363281 35.710938 -105.5625 32.390625 -122.34375 C 29.066406 -139.125 27.40625 -156.484375 27.40625 -174.421875 C 27.40625 -192.359375 29.066406 -209.710938 32.390625 -226.484375 C 35.710938 -243.265625 41.359375 -259.460938 49.328125 -275.078125 C 57.304688 -290.703125 67.023438 -304.410156 78.484375 -316.203125 C 89.953125 -327.992188 104.570312 -337.378906 122.34375 -344.359375 C 140.113281 -351.335938 159.796875 -354.828125 181.390625 -354.828125 C 202.992188 -354.828125 222.679688 -351.335938 240.453125 -344.359375 C 258.222656 -337.378906 272.835938 -327.992188 284.296875 -316.203125 C 295.765625 -304.410156 305.398438 -290.703125 313.203125 -275.078125 C 321.015625 -259.460938 326.582031 -243.265625 329.90625 -226.484375 C 333.226562 -209.710938 334.890625 -192.359375 334.890625 -174.421875 C 334.890625 -156.484375 333.226562 -139.125 329.90625 -122.34375 C 326.582031 -105.5625 321.015625 -89.363281 313.203125 -73.75 C 305.398438 -58.132812 295.765625 -44.429688 284.296875 -32.640625 C 272.835938 -20.847656 258.222656 -11.460938 240.453125 -4.484375 Z M 181.390625 -58.796875 C 196.015625 -58.796875 208.972656 -62.367188 220.265625 -69.515625 C 231.566406 -76.660156 240.375 -86.128906 246.6875 -97.921875 C 253 -109.710938 257.648438 -122.085938 260.640625 -135.046875 C 263.628906 -148.003906 265.125 -161.128906 265.125 -174.421875 C 265.125 -188.703125 263.628906 -202.320312 260.640625 -215.28125 C 257.648438 -228.238281 253.078125 -240.445312 246.921875 -251.90625 C 240.773438 -263.375 232.054688 -272.59375 220.765625 -279.5625 C 209.472656 -286.539062 196.347656 -290.03125 181.390625 -290.03125 C 166.441406 -290.03125 153.234375 -286.457031 141.765625 -279.3125 C 130.304688 -272.175781 121.503906 -262.707031 115.359375 -250.90625 C 109.210938 -239.113281 104.644531 -226.820312 101.65625 -214.03125 C 98.664062 -201.25 97.171875 -188.046875 97.171875 -174.421875 C 97.171875 -155.148438 99.660156 -137.207031 104.640625 -120.59375 C 109.628906 -103.988281 118.769531 -89.535156 132.0625 -77.234375 C 145.351562 -64.941406 161.796875 -58.796875 181.390625 -58.796875 Z M 181.390625 -58.796875 "/></g></g></g><g fill="#381a2a" fill-opacity="1"><g transform="translate(586.792162, 394.137605)"><g><path d="M 181.390625 5.984375 C 159.796875 5.984375 140.113281 2.492188 122.34375 -4.484375 C 104.570312 -11.460938 89.953125 -20.847656 78.484375 -32.640625 C 67.023438 -44.429688 57.304688 -58.132812 49.328125 -73.75 C 41.359375 -89.363281 35.710938 -105.5625 32.390625 -122.34375 C 29.066406 -139.125 27.40625 -156.484375 27.40625 -174.421875 C 27.40625 -192.359375 29.066406 -209.710938 32.390625 -226.484375 C 35.710938 -243.265625 41.359375 -259.460938 49.328125 -275.078125 C 57.304688 -290.703125 67.023438 -304.410156 78.484375 -316.203125 C 89.953125 -327.992188 104.570312 -337.378906 122.34375 -344.359375 C 140.113281 -351.335938 159.796875 -354.828125 181.390625 -354.828125 C 202.992188 -354.828125 222.679688 -351.335938 240.453125 -344.359375 C 258.222656 -337.378906 272.835938 -327.992188 284.296875 -316.203125 C 295.765625 -304.410156 305.398438 -290.703125 313.203125 -275.078125 C 321.015625 -259.460938 326.582031 -243.265625 329.90625 -226.484375 C 333.226562 -209.710938 334.890625 -192.359375 334.890625 -174.421875 C 334.890625 -113.617188 317.945312 -66.273438 284.0625 -32.390625 L 306.984375 1.5 L 257.140625 34.390625 L 232.71875 -1.5 C 215.445312 3.488281 198.335938 5.984375 181.390625 5.984375 Z M 181.390625 -58.796875 C 185.378906 -58.796875 189.367188 -59.296875 193.359375 -60.296875 L 167.9375 -98.171875 L 218.765625 -131.0625 L 243.6875 -93.1875 C 257.976562 -113.457031 265.125 -140.535156 265.125 -174.421875 C 265.125 -188.703125 263.628906 -202.320312 260.640625 -215.28125 C 257.648438 -228.238281 253.078125 -240.445312 246.921875 -251.90625 C 240.773438 -263.375 232.054688 -272.59375 220.765625 -279.5625 C 209.472656 -286.539062 196.347656 -290.03125 181.390625 -290.03125 C 166.441406 -290.03125 153.234375 -286.457031 141.765625 -279.3125 C 130.304688 -272.175781 121.503906 -262.707031 115.359375 -250.90625 C 109.210938 -239.113281 104.644531 -226.820312 101.65625 -214.03125 C 98.664062 -201.25 97.171875 -188.046875 97.171875 -174.421875 C 97.171875 -155.148438 99.660156 -137.207031 104.640625 -120.59375 C 109.628906 -103.988281 118.769531 -89.535156 132.0625 -77.234375 C 145.351562 -64.941406 161.796875 -58.796875 181.390625 -58.796875 Z M 181.390625 -58.796875 "/></g></g></g><g fill="#381a2a" fill-opacity="1"><g transform="translate(904.731341, 394.137605)"><g><path d="M 192.359375 0 L 192.359375 -23.921875 C 176.410156 -3.984375 153.65625 5.984375 124.09375 5.984375 C 99.175781 5.984375 78.078125 -1.988281 60.796875 -17.9375 C 43.523438 -33.882812 34.890625 -59.300781 34.890625 -94.1875 L 34.890625 -254.65625 L 99.671875 -254.65625 L 99.671875 -115.125 C 99.671875 -94.851562 103.238281 -79.984375 110.375 -70.515625 C 117.519531 -61.046875 128.734375 -56.3125 144.015625 -56.3125 C 176.242188 -56.3125 192.359375 -75.582031 192.359375 -114.125 L 192.359375 -254.65625 L 257.140625 -254.65625 L 257.140625 0 Z M 192.359375 0 "/></g></g></g><g fill="#381a2a" fill-opacity="1"><g transform="translate(1154.896647, 394.137605)"><g><path d="M 70.265625 -284.546875 C 59.960938 -284.546875 51.070312 -288.285156 43.59375 -295.765625 C 36.125 -303.242188 32.390625 -312.128906 32.390625 -322.421875 C 32.390625 -332.722656 36.039062 -341.523438 43.34375 -348.828125 C 50.65625 -356.140625 59.628906 -359.796875 70.265625 -359.796875 C 80.898438 -359.796875 89.867188 -356.222656 97.171875 -349.078125 C 104.484375 -341.941406 108.140625 -333.054688 108.140625 -322.421875 C 108.140625 -311.796875 104.484375 -302.828125 97.171875 -295.515625 C 89.867188 -288.203125 80.898438 -284.546875 70.265625 -284.546875 Z M 37.875 0 L 37.875 -254.65625 L 102.65625 -254.65625 L 102.65625 0 Z M 37.875 0 "/></g></g></g><g fill="#381a2a" fill-opacity="1"><g transform="translate(1251.075759, 394.137605)"><g><path d="M 27.40625 0 L 27.40625 -50.828125 L 158.96875 -196.84375 L 36.875 -196.84375 L 36.875 -254.65625 L 241.203125 -254.65625 L 241.203125 -205.3125 L 110.140625 -57.8125 L 240.703125 -57.8125 L 240.703125 0 Z M 27.40625 0 "/></g></g></g></svg>