<svg xmlns="http://www.w3.org/2000/svg" xmlns:xlink="http://www.w3.org/1999/xlink" width="500" zoomAndPan="magnify" viewBox="0 0 375 374.999991" height="500" preserveAspectRatio="xMidYMid meet" version="1.0"><defs><g/></defs><g fill="#381a2a" fill-opacity="1"><g transform="translate(2.938588, 227.122171)"><g><path d="M 43.234375 1.421875 C 37.046875 1.421875 31.546875 0.210938 26.734375 -2.203125 C 21.929688 -4.628906 18.082031 -7.90625 15.1875 -12.03125 C 12.289062 -16.15625 10.125 -20.71875 8.6875 -25.71875 C 7.257812 -30.726562 6.546875 -36.050781 6.546875 -41.6875 C 6.546875 -46.925781 7.300781 -52.023438 8.8125 -56.984375 C 10.320312 -61.953125 12.523438 -66.539062 15.421875 -70.75 C 18.316406 -74.957031 22.164062 -78.351562 26.96875 -80.9375 C 31.78125 -83.519531 37.203125 -84.8125 43.234375 -84.8125 C 50.617188 -84.8125 56.59375 -83.203125 61.15625 -79.984375 C 65.726562 -76.765625 69.722656 -72.414062 73.140625 -66.9375 L 58.953125 -58.84375 C 54.347656 -65.832031 49.109375 -69.328125 43.234375 -69.328125 C 39.578125 -69.328125 36.378906 -68.472656 33.640625 -66.765625 C 30.910156 -65.054688 28.828125 -62.789062 27.390625 -59.96875 C 25.960938 -57.15625 24.910156 -54.21875 24.234375 -51.15625 C 23.554688 -48.101562 23.21875 -44.945312 23.21875 -41.6875 C 23.21875 -33.90625 24.882812 -27.351562 28.21875 -22.03125 C 31.5625 -16.71875 36.566406 -14.0625 43.234375 -14.0625 C 47.285156 -14.0625 50.71875 -15.367188 53.53125 -17.984375 C 56.351562 -20.609375 57.765625 -23.785156 57.765625 -27.515625 L 57.765625 -28.46875 L 43.59375 -28.46875 L 43.59375 -43.71875 L 74.203125 -43.71875 L 74.203125 -31.4375 C 74.203125 -21.113281 71.300781 -13.054688 65.5 -7.265625 C 59.707031 -1.472656 52.285156 1.421875 43.234375 1.421875 Z M 43.234375 1.421875 "/></g></g></g><g fill="#381a2a" fill-opacity="1"><g transform="translate(72.498793, 227.122171)"><g><path d="M 57.46875 -1.078125 C 53.21875 0.585938 48.507812 1.421875 43.34375 1.421875 C 38.1875 1.421875 33.484375 0.585938 29.234375 -1.078125 C 24.992188 -2.742188 21.503906 -4.984375 18.765625 -7.796875 C 16.023438 -10.617188 13.703125 -13.894531 11.796875 -17.625 C 9.890625 -21.351562 8.535156 -25.222656 7.734375 -29.234375 C 6.941406 -33.242188 6.546875 -37.394531 6.546875 -41.6875 C 6.546875 -45.976562 6.941406 -50.128906 7.734375 -54.140625 C 8.535156 -58.148438 9.890625 -62.019531 11.796875 -65.75 C 13.703125 -69.476562 16.023438 -72.75 18.765625 -75.5625 C 21.503906 -78.382812 24.992188 -80.628906 29.234375 -82.296875 C 33.484375 -83.972656 38.1875 -84.8125 43.34375 -84.8125 C 48.507812 -84.8125 53.21875 -83.972656 57.46875 -82.296875 C 61.71875 -80.628906 65.210938 -78.382812 67.953125 -75.5625 C 70.691406 -72.75 72.992188 -69.476562 74.859375 -65.75 C 76.722656 -62.019531 78.050781 -58.148438 78.84375 -54.140625 C 79.644531 -50.128906 80.046875 -45.976562 80.046875 -41.6875 C 80.046875 -37.394531 79.644531 -33.242188 78.84375 -29.234375 C 78.050781 -25.222656 76.722656 -21.351562 74.859375 -17.625 C 72.992188 -13.894531 70.691406 -10.617188 67.953125 -7.796875 C 65.210938 -4.984375 61.71875 -2.742188 57.46875 -1.078125 Z M 43.359375 -14.0625 C 46.847656 -14.0625 49.941406 -14.910156 52.640625 -16.609375 C 55.347656 -18.316406 57.453125 -20.582031 58.953125 -23.40625 C 60.460938 -26.226562 61.570312 -29.1875 62.28125 -32.28125 C 63 -35.375 63.359375 -38.507812 63.359375 -41.6875 C 63.359375 -45.101562 63 -48.359375 62.28125 -51.453125 C 61.570312 -54.546875 60.484375 -57.460938 59.015625 -60.203125 C 57.546875 -62.941406 55.460938 -65.144531 52.765625 -66.8125 C 50.066406 -68.488281 46.929688 -69.328125 43.359375 -69.328125 C 39.785156 -69.328125 36.628906 -68.472656 33.890625 -66.765625 C 31.148438 -65.054688 29.046875 -62.789062 27.578125 -59.96875 C 26.109375 -57.15625 25.015625 -54.21875 24.296875 -51.15625 C 23.578125 -48.101562 23.21875 -44.945312 23.21875 -41.6875 C 23.21875 -37.082031 23.8125 -32.796875 25 -28.828125 C 26.195312 -24.859375 28.382812 -21.40625 31.5625 -18.46875 C 34.738281 -15.53125 38.671875 -14.0625 43.359375 -14.0625 Z M 43.359375 -14.0625 "/></g></g></g><g fill="#381a2a" fill-opacity="1"><g transform="translate(148.490936, 227.122171)"><g><path d="M 43.359375 1.421875 C 38.191406 1.421875 33.484375 0.585938 29.234375 -1.078125 C 24.992188 -2.742188 21.503906 -4.984375 18.765625 -7.796875 C 16.023438 -10.617188 13.703125 -13.894531 11.796875 -17.625 C 9.890625 -21.351562 8.535156 -25.222656 7.734375 -29.234375 C 6.941406 -33.242188 6.546875 -37.394531 6.546875 -41.6875 C 6.546875 -45.976562 6.941406 -50.128906 7.734375 -54.140625 C 8.535156 -58.148438 9.890625 -62.019531 11.796875 -65.75 C 13.703125 -69.476562 16.023438 -72.75 18.765625 -75.5625 C 21.503906 -78.382812 24.992188 -80.628906 29.234375 -82.296875 C 33.484375 -83.972656 38.1875 -84.8125 43.34375 -84.8125 C 48.507812 -84.8125 53.21875 -83.972656 57.46875 -82.296875 C 61.71875 -80.628906 65.210938 -78.382812 67.953125 -75.5625 C 70.691406 -72.75 72.992188 -69.476562 74.859375 -65.75 C 76.722656 -62.019531 78.050781 -58.148438 78.84375 -54.140625 C 79.644531 -50.128906 80.046875 -45.976562 80.046875 -41.6875 C 80.046875 -27.15625 75.992188 -15.835938 67.890625 -7.734375 L 73.375 0.359375 L 61.453125 8.21875 L 55.625 -0.359375 C 51.5 0.828125 47.410156 1.421875 43.359375 1.421875 Z M 43.359375 -14.0625 C 44.304688 -14.0625 45.257812 -14.175781 46.21875 -14.40625 L 40.140625 -23.46875 L 52.28125 -31.328125 L 58.25 -22.28125 C 61.65625 -27.125 63.359375 -33.59375 63.359375 -41.6875 C 63.359375 -45.101562 63 -48.359375 62.28125 -51.453125 C 61.570312 -54.546875 60.484375 -57.460938 59.015625 -60.203125 C 57.546875 -62.941406 55.460938 -65.144531 52.765625 -66.8125 C 50.066406 -68.488281 46.929688 -69.328125 43.359375 -69.328125 C 39.785156 -69.328125 36.628906 -68.472656 33.890625 -66.765625 C 31.148438 -65.054688 29.046875 -62.789062 27.578125 -59.96875 C 26.109375 -57.15625 25.015625 -54.21875 24.296875 -51.15625 C 23.578125 -48.101562 23.21875 -44.945312 23.21875 -41.6875 C 23.21875 -37.082031 23.8125 -32.796875 25 -28.828125 C 26.195312 -24.859375 28.382812 -21.40625 31.5625 -18.46875 C 34.738281 -15.53125 38.671875 -14.0625 43.359375 -14.0625 Z M 43.359375 -14.0625 "/></g></g></g><g fill="#381a2a" fill-opacity="1"><g transform="translate(224.483079, 227.122171)"><g><path d="M 45.96875 0 L 45.96875 -5.71875 C 42.164062 -0.957031 36.726562 1.421875 29.65625 1.421875 C 23.695312 1.421875 18.65625 -0.476562 14.53125 -4.28125 C 10.40625 -8.09375 8.34375 -14.171875 8.34375 -22.515625 L 8.34375 -60.859375 L 23.828125 -60.859375 L 23.828125 -27.515625 C 23.828125 -22.671875 24.675781 -19.113281 26.375 -16.84375 C 28.082031 -14.582031 30.765625 -13.453125 34.421875 -13.453125 C 42.117188 -13.453125 45.96875 -18.0625 45.96875 -27.28125 L 45.96875 -60.859375 L 61.453125 -60.859375 L 61.453125 0 Z M 45.96875 0 "/></g></g></g><g fill="#381a2a" fill-opacity="1"><g transform="translate(284.276268, 227.122171)"><g><path d="M 16.796875 -68.015625 C 14.335938 -68.015625 12.210938 -68.90625 10.421875 -70.6875 C 8.628906 -72.476562 7.734375 -74.601562 7.734375 -77.0625 C 7.734375 -79.519531 8.609375 -81.625 10.359375 -83.375 C 12.109375 -85.125 14.253906 -86 16.796875 -86 C 19.335938 -86 21.476562 -85.144531 23.21875 -83.4375 C 24.96875 -81.726562 25.84375 -79.601562 25.84375 -77.0625 C 25.84375 -74.519531 24.96875 -72.375 23.21875 -70.625 C 21.476562 -68.882812 19.335938 -68.015625 16.796875 -68.015625 Z M 9.046875 0 L 9.046875 -60.859375 L 24.53125 -60.859375 L 24.53125 0 Z M 9.046875 0 "/></g></g></g><g fill="#381a2a" fill-opacity="1"><g transform="translate(307.264491, 227.122171)"><g><path d="M 6.546875 0 L 6.546875 -12.15625 L 38 -47.046875 L 8.8125 -47.046875 L 8.8125 -60.859375 L 57.65625 -60.859375 L 57.65625 -49.078125 L 26.328125 -13.8125 L 57.53125 -13.8125 L 57.53125 0 Z M 6.546875 0 "/></g></g></g></svg>